<svg width="182" height="63" viewBox="0 0 182 63" fill="none" xmlns="http://www.w3.org/2000/svg">
<path d="M1 53.8257V43.7348H21.3906V2.69833C21.3906 2.69833 32.9149 -0.372816 39.417 2.69833C43.5316 4.64173 46.2572 6.35285 48.578 10.4347C54.3152 20.5256 51.8142 29.9851 44.7363 36.3348C38.2104 42.1893 23.4592 36.3348 23.4592 36.3348" stroke="#FFF1D4" stroke-width="2" stroke-linecap="round"/>
<path d="M29.9604 38.353L43.3268 61.2258L53.3061 49.7894" stroke="#FFF1D4" stroke-width="2" stroke-linecap="round"/>
<path d="M83.9266 40.0348C83.9266 45.7116 82.3526 50.8069 79.8598 54.4549C77.3636 58.1079 74.018 60.2258 70.4463 60.2258C66.8746 60.2258 63.529 58.1079 61.0329 54.4549C58.5401 50.8069 56.9661 45.7116 56.9661 40.0348C56.9661 34.358 58.5401 29.2628 61.0329 25.6147C63.529 21.9618 66.8746 19.8439 70.4463 19.8439C74.018 19.8439 77.3636 21.9618 79.8598 25.6147C82.3526 29.2628 83.9266 34.358 83.9266 40.0348Z" stroke="#FFF1D4" stroke-width="2"/>
<path d="M89.5887 20.1892C89.5887 20.1892 88.4069 38.3529 89.5887 47.0984C90.7705 55.8438 94.9077 58.8711 96.6809 59.8802C98.4541 60.8893 106.137 62.5711 109.979 59.8802C113.821 57.1893 115.89 53.8256 117.072 47.0984C118.254 40.3711 117.072 20.1892 117.072 20.1892" stroke="#FFF1D4" stroke-width="2" stroke-linecap="round"/>
<path d="M124.435 1.35291C124.435 1.35291 124.14 49.453 124.435 51.4712C124.731 53.4894 128.277 57.1894 129.459 58.1985C130.641 59.2076 133.259 60.9362 135.96 60.8894C138.554 60.8445 140.071 59.9381 142.166 58.1985C144.497 56.2631 145.567 54.5378 146.599 51.4712C147.231 49.5948 147.435 48.4343 147.486 46.4257" stroke="#FFF1D4" stroke-width="2" stroke-linecap="round"/>
<path d="M125.191 20.8619H147.946" stroke="#FFF1D4" stroke-width="2" stroke-linecap="round"/>
<path d="M180.999 47.6402C180.999 47.6402 179.285 53.6588 176.862 56.3857C174.693 58.8254 173.064 60.1355 170.065 60.7584C167.319 61.3286 165.553 60.959 162.972 59.7493C161.049 58.8477 160.03 58.0379 158.54 56.3857C156.098 53.6793 155.333 51.3718 154.402 47.6402C153.674 44.7171 153.674 39.9038 153.674 39.9038M153.674 39.9038C153.674 39.9038 153.586 37.8658 153.674 37.2129C154.402 31.8311 157.949 26.1129 157.949 26.1129C157.949 26.1129 160.017 22.694 162.972 21.7401C165.082 21.0592 167.917 20.5652 170.065 21.0674C172.997 21.7531 174.654 22.8015 176.862 25.1038C178.339 26.6449 179.638 28.856 180.408 32.1674C181.057 34.9612 180.999 39.9038 180.999 39.9038H153.674Z" stroke="#FFF1D4" stroke-width="2" stroke-linecap="round"/>
</svg>
